<svg xmlns="http://www.w3.org/2000/svg" xmlns:xlink="http://www.w3.org/1999/xlink" width="451.2" height="451.2" viewBox="0 0 338.4 338.4"><path fill="none" d="M0 338.4h338.4V0H0v338.4z"/><defs><path id="b" stroke="#2d7dd2" d="M15.382-.112V0h307.636v-.457l-1.546-.107-1.546-.13-1.546-.158-1.545-.19-1.546-.227-1.546-.272-1.546-.324-1.546-.385-1.546-.455-1.546-.537-1.546-.629-1.546-.736-1.546-.856-1.546-.993-1.545-1.146-1.546-1.317-1.546-1.508-1.546-1.718-1.546-1.95-1.546-2.201-1.546-2.476-1.546-2.77-1.546-3.088-1.546-3.426-1.546-3.782-1.546-4.159-1.545-4.55-1.546-4.955-1.546-5.373-1.546-5.798-1.546-6.226-1.546-6.653-1.546-7.077-1.546-7.487-1.546-7.882-1.546-8.254-1.546-8.597-1.545-8.905-1.546-9.17-1.546-9.386-1.546-9.549-1.546-9.649-1.546-9.684-1.546-9.648-1.546-9.536-1.546-9.345-1.546-9.074-1.546-8.72-1.545-8.286-1.546-7.77-1.546-7.179-1.546-6.512-1.546-5.779-1.546-4.983-1.546-4.136-1.546-3.242-1.546-2.315-1.546-1.361-1.546-.395-1.546.575-1.545 1.536-1.546 2.48-1.546 3.39-1.546 4.265-1.546 5.089-1.546 5.855-1.546 6.559-1.546 7.19-1.546 7.75-1.546 8.228-1.546 8.629-1.545 8.946-1.546 9.183-1.546 9.34-1.546 9.42-1.546 9.421-1.546 9.353-1.546 9.213-1.546 9.01-1.546 8.744-1.546 8.423-1.546 8.048-1.545 7.625-1.546 7.158-1.546 6.653-1.546 6.113-1.546 5.54-1.546 4.945-1.546 4.323-1.546 3.683-1.546 3.028-1.546 2.357-1.546 1.678-1.545.987-1.546.29-1.546-.412-1.546-1.12-1.546-1.83-1.546-2.543-1.546-3.255-1.546-3.965-1.546-4.671-1.546-5.37-1.546-6.056-1.546-6.73-1.545-7.384-1.546-8.014-1.546-8.614-1.546-9.179-1.546-9.702-1.546-10.176-1.546-10.596-1.546-10.953-1.546-11.242-1.546-11.457-1.546-11.591-1.545-11.64-1.546-11.599-1.546-11.463-1.546-11.23-1.546-10.9-1.546-10.47-1.546-9.94-1.546-9.314-1.546-8.594-1.546-7.787-1.546-6.895-1.545-5.928-1.546-4.896-1.546-3.809-1.546-2.675-1.546-1.512-1.546-.328-1.546.861-1.546 2.042-1.546 3.2-1.546 4.325-1.546 5.402-1.545 6.421-1.546 7.371-1.546 8.244-1.546 9.03-1.546 9.725-1.546 10.323-1.546 10.825-1.546 11.224-1.546 11.524-1.546 11.726-1.546 11.833-1.546 11.85-1.545 11.78-1.546 11.633-1.546 11.413-1.546 11.128-1.546 10.787-1.546 10.395-1.546 9.964-1.546 9.498-1.546 9.007-1.546 8.497-1.546 7.977-1.545 7.45-1.546 6.925-1.546 6.406-1.546 5.898-1.546 5.405-1.546 4.93-1.546 4.477-1.546 4.047-1.546 3.642-1.546 3.263-1.546 2.91-1.545 2.585-1.546 2.285-1.546 2.012-1.546 1.763-1.546 1.538-1.546 1.336L46.3-6.254l-1.546.994-1.546.852-1.546.727-1.546.617-1.546.522-1.545.439-1.546.369-1.546.308-1.546.256-1.546.213-1.546.176-1.546.145-1.546.12-1.546.098-1.546.08-1.546.066-1.545.053-1.546.043-1.546.036-1.546.028z"/></defs><g clip-path="url(#a)"><use xlink:href="#b" y="338.4" fill="#2d7dd2" fill-opacity=".25" stroke="#2d7dd2"/></g><defs><path id="c" stroke="#e71d36" d="M15.382-.376V0h307.636-3.092l-1.546-.001h-3.091l-1.546-.001h-3.092l-1.546-.001h-3.092l-1.546-.001h-1.546l-1.546-.001-1.545-.001-1.546-.001-1.546-.002-1.546-.002-1.546-.003-1.546-.004-1.546-.005-1.546-.005-1.546-.007-1.546-.007-1.546-.008-1.546-.01-1.545-.01-1.546-.012-1.546-.014-1.546-.015-1.546-.019-1.546-.022-1.546-.026-1.546-.03-1.546-.037-1.546-.043-1.546-.05-1.545-.059-1.546-.068-1.546-.08-1.546-.091-1.546-.106-1.546-.121-1.546-.14-1.546-.16-1.546-.183-1.546-.21-1.546-.24-1.545-.273-1.546-.307-1.546-.345-1.546-.383-1.546-.425-1.546-.469-1.546-.516-1.546-.567-1.546-.625-1.546-.69-1.546-.76-1.546-.84-1.545-.93-1.546-1.024-1.546-1.128-1.546-1.238-1.546-1.356-1.546-1.48-1.546-1.61-1.546-1.747-1.546-1.888-1.546-2.035-1.546-2.186-1.545-2.343-1.546-2.506-1.546-2.674-1.546-2.85-1.546-3.032-1.546-3.222-1.546-3.416-1.546-3.616-1.546-3.815-1.546-4.014-1.546-4.209-1.545-4.395-1.546-4.573-1.546-4.74-1.546-4.895-1.546-5.037-1.546-5.165-1.546-5.28-1.546-5.38-1.546-5.465-1.546-5.536-1.546-5.593-1.545-5.637-1.546-5.665-1.546-5.678-1.546-5.672-1.546-5.647-1.546-5.6-1.546-5.526-1.546-5.425-1.546-5.297-1.546-5.139-1.546-4.953-1.546-4.742-1.545-4.505-1.546-4.243-1.546-3.959-1.546-3.652-1.546-3.325-1.546-2.977-1.546-2.611-1.546-2.229-1.546-1.833-1.546-1.429-1.546-1.017-1.545-.605-1.546-.19-1.546.224-1.546.633-1.546 1.04-1.546 1.442-1.546 1.837-1.546 2.226-1.546 2.604-1.546 2.971-1.546 3.327-1.545 3.667-1.546 3.988-1.546 4.288-1.546 4.562-1.546 4.806-1.546 5.017-1.546 5.194-1.546 5.338-1.546 5.45-1.546 5.536-1.546 5.598-1.545 5.64-1.546 5.667-1.546 5.674-1.546 5.665-1.546 5.64-1.546 5.593-1.546 5.53-1.546 5.45-1.546 5.351-1.546 5.239-1.546 5.114-1.546 4.977-1.545 4.83-1.546 4.672-1.546 4.506-1.546 4.33-1.546 4.147-1.546 3.96-1.546 3.769-1.546 3.58-1.546 3.397-1.546 3.216-1.546 3.042-1.545 2.873-1.546 2.708-1.546 2.547-1.546 2.388-1.546 2.23-1.546 2.076-1.546 1.924-1.546 1.778-1.546 1.637-1.546 1.503-1.546 1.375-1.545 1.257-1.546 1.144-1.546 1.04-1.546.944-1.546.853-1.546.77-1.546.692-1.546.621-1.546.557-1.546.496-1.546.442-1.546.394-1.545.349-1.546.31-1.546.273-1.546.242-1.546.214-1.546.19-1.546.168-1.546.148-1.546.133-1.546.118-1.546.105L20.02-.6l-1.546.084-1.546.074-1.546.066z"/></defs><g clip-path="url(#a)"><use xlink:href="#c" y="338.4" fill="#e71d36" fill-opacity=".25" stroke="#e71d36"/></g><defs><clipPath id="a"><path d="M0 0h338.4v338.4H0z"/></clipPath></defs></svg>