<?xml version="1.0" encoding="utf-8" standalone="no"?>
<!DOCTYPE svg PUBLIC "-//W3C//DTD SVG 1.1//EN"
  "http://www.w3.org/Graphics/SVG/1.1/DTD/svg11.dtd">
<svg xmlns:xlink="http://www.w3.org/1999/xlink" width="338.4pt" height="338.4pt" viewBox="0 0 338.4 338.4" xmlns="http://www.w3.org/2000/svg" version="1.1">
 <metadata>
  <rdf:RDF xmlns:dc="http://purl.org/dc/elements/1.1/" xmlns:cc="http://creativecommons.org/ns#" xmlns:rdf="http://www.w3.org/1999/02/22-rdf-syntax-ns#">
   <cc:Work>
    <dc:type rdf:resource="http://purl.org/dc/dcmitype/StillImage"/>
    <dc:date>2022-06-20T08:06:42.684941</dc:date>
    <dc:format>image/svg+xml</dc:format>
    <dc:creator>
     <cc:Agent>
      <dc:title>Matplotlib v3.5.1, https://matplotlib.org/</dc:title>
     </cc:Agent>
    </dc:creator>
   </cc:Work>
  </rdf:RDF>
 </metadata>
 <defs>
  <style type="text/css">*{stroke-linejoin: round; stroke-linecap: butt}</style>
 </defs>
 <g id="figure_1">
  <g id="patch_1">
   <path d="M 0 338.4 
L 338.4 338.4 
L 338.4 0 
L 0 0 
L 0 338.4 
z
" style="fill: none"/>
  </g>
  <g id="axes_1">
   <g id="PolyCollection_1">
    <defs>
     <path id="me9ccaa21a8" d="M 15.381818 -0.099658 
L 15.381818 0 
L 16.92773 0 
L 18.473641 0 
L 20.019552 0 
L 21.565464 0 
L 23.111375 0 
L 24.657286 0 
L 26.203198 0 
L 27.749109 0 
L 29.295021 0 
L 30.840932 0 
L 32.386843 0 
L 33.932755 0 
L 35.478666 0 
L 37.024577 0 
L 38.570489 0 
L 40.1164 0 
L 41.662312 0 
L 43.208223 0 
L 44.754134 0 
L 46.300046 0 
L 47.845957 0 
L 49.391868 0 
L 50.93778 0 
L 52.483691 0 
L 54.029603 0 
L 55.575514 0 
L 57.121425 0 
L 58.667337 0 
L 60.213248 0 
L 61.759159 0 
L 63.305071 0 
L 64.850982 0 
L 66.396894 0 
L 67.942805 0 
L 69.488716 0 
L 71.034628 0 
L 72.580539 0 
L 74.12645 0 
L 75.672362 0 
L 77.218273 0 
L 78.764185 0 
L 80.310096 0 
L 81.856007 0 
L 83.401919 0 
L 84.94783 0 
L 86.493741 0 
L 88.039653 0 
L 89.585564 0 
L 91.131476 0 
L 92.677387 0 
L 94.223298 0 
L 95.76921 0 
L 97.315121 0 
L 98.861032 0 
L 100.406944 0 
L 101.952855 0 
L 103.498767 0 
L 105.044678 0 
L 106.590589 0 
L 108.136501 0 
L 109.682412 0 
L 111.228323 0 
L 112.774235 0 
L 114.320146 0 
L 115.866058 0 
L 117.411969 0 
L 118.95788 0 
L 120.503792 0 
L 122.049703 0 
L 123.595614 0 
L 125.141526 0 
L 126.687437 0 
L 128.233349 0 
L 129.77926 0 
L 131.325171 0 
L 132.871083 0 
L 134.416994 0 
L 135.962905 0 
L 137.508817 0 
L 139.054728 0 
L 140.60064 0 
L 142.146551 0 
L 143.692462 0 
L 145.238374 0 
L 146.784285 0 
L 148.330196 0 
L 149.876108 0 
L 151.422019 0 
L 152.967931 0 
L 154.513842 0 
L 156.059753 0 
L 157.605665 0 
L 159.151576 0 
L 160.697487 0 
L 162.243399 0 
L 163.78931 0 
L 165.335222 0 
L 166.881133 0 
L 168.427044 0 
L 169.972956 0 
L 171.518867 0 
L 173.064778 0 
L 174.61069 0 
L 176.156601 0 
L 177.702513 0 
L 179.248424 0 
L 180.794335 0 
L 182.340247 0 
L 183.886158 0 
L 185.432069 0 
L 186.977981 0 
L 188.523892 0 
L 190.069804 0 
L 191.615715 0 
L 193.161626 0 
L 194.707538 0 
L 196.253449 0 
L 197.79936 0 
L 199.345272 0 
L 200.891183 0 
L 202.437095 0 
L 203.983006 0 
L 205.528917 0 
L 207.074829 0 
L 208.62074 0 
L 210.166651 0 
L 211.712563 0 
L 213.258474 0 
L 214.804386 0 
L 216.350297 0 
L 217.896208 0 
L 219.44212 0 
L 220.988031 0 
L 222.533942 0 
L 224.079854 0 
L 225.625765 0 
L 227.171677 0 
L 228.717588 0 
L 230.263499 0 
L 231.809411 0 
L 233.355322 0 
L 234.901233 0 
L 236.447145 0 
L 237.993056 0 
L 239.538968 0 
L 241.084879 0 
L 242.63079 0 
L 244.176702 0 
L 245.722613 0 
L 247.268524 0 
L 248.814436 0 
L 250.360347 0 
L 251.906259 0 
L 253.45217 0 
L 254.998081 0 
L 256.543993 0 
L 258.089904 0 
L 259.635815 0 
L 261.181727 0 
L 262.727638 0 
L 264.27355 0 
L 265.819461 0 
L 267.365372 0 
L 268.911284 0 
L 270.457195 0 
L 272.003106 0 
L 273.549018 0 
L 275.094929 0 
L 276.640841 0 
L 278.186752 0 
L 279.732663 0 
L 281.278575 0 
L 282.824486 0 
L 284.370397 0 
L 285.916309 0 
L 287.46222 0 
L 289.008132 0 
L 290.554043 0 
L 292.099954 0 
L 293.645866 0 
L 295.191777 0 
L 296.737688 0 
L 298.2836 0 
L 299.829511 0 
L 301.375423 0 
L 302.921334 0 
L 304.467245 0 
L 306.013157 0 
L 307.559068 0 
L 309.104979 0 
L 310.650891 0 
L 312.196802 0 
L 313.742714 0 
L 315.288625 0 
L 316.834536 0 
L 318.380448 0 
L 319.926359 0 
L 321.47227 0 
L 323.018182 0 
L 323.018182 -0.459941 
L 323.018182 -0.459941 
L 321.47227 -0.56806 
L 319.926359 -0.699193 
L 318.380448 -0.857679 
L 316.834536 -1.048538 
L 315.288625 -1.277545 
L 313.742714 -1.551301 
L 312.196802 -1.877306 
L 310.650891 -2.264036 
L 309.104979 -2.721005 
L 307.559068 -3.258832 
L 306.013157 -3.889296 
L 304.467245 -4.625377 
L 302.921334 -5.481288 
L 301.375423 -6.472485 
L 299.829511 -7.615655 
L 298.2836 -8.928674 
L 296.737688 -10.430536 
L 295.191777 -12.14124 
L 293.645866 -14.081639 
L 292.099954 -16.273243 
L 290.554043 -18.737978 
L 289.008132 -21.497891 
L 287.46222 -24.574815 
L 285.916309 -27.98998 
L 284.370397 -31.763588 
L 282.824486 -35.914345 
L 281.278575 -40.458966 
L 279.732663 -45.411651 
L 278.186752 -50.783554 
L 276.640841 -56.582246 
L 275.094929 -62.811188 
L 273.549018 -69.469231 
L 272.003106 -76.550149 
L 270.457195 -84.042227 
L 268.911284 -91.927907 
L 267.365372 -100.183514 
L 265.819461 -108.779074 
L 264.27355 -117.678219 
L 262.727638 -126.838211 
L 261.181727 -136.210075 
L 259.635815 -145.738855 
L 258.089904 -155.363993 
L 256.543993 -165.019833 
L 254.998081 -174.636254 
L 253.45217 -184.139408 
L 251.906259 -193.452583 
L 250.360347 -202.497155 
L 248.814436 -211.193625 
L 247.268524 -219.462727 
L 245.722613 -227.226581 
L 244.176702 -234.409873 
L 242.63079 -240.941043 
L 241.084879 -246.753448 
L 239.538968 -251.786493 
L 237.993056 -255.98668 
L 236.447145 -259.308576 
L 234.901233 -261.715659 
L 233.355322 -263.181015 
L 231.809411 -263.687889 
L 230.263499 -263.23004 
L 228.717588 -261.811913 
L 227.171677 -259.448616 
L 225.625765 -256.165692 
L 224.079854 -251.998703 
L 222.533942 -246.992644 
L 220.988031 -241.20118 
L 219.44212 -234.685763 
L 217.896208 -227.514626 
L 216.350297 -219.761683 
L 214.804386 -211.505375 
L 213.258474 -202.827473 
L 211.712563 -193.811864 
L 210.166651 -184.543352 
L 208.62074 -175.106492 
L 207.074829 -165.584491 
L 205.528917 -156.058185 
L 203.983006 -146.605137 
L 202.437095 -137.29886 
L 200.891183 -128.20819 
L 199.345272 -119.396823 
L 197.79936 -110.923022 
L 196.253449 -102.839483 
L 194.707538 -95.193361 
L 193.161626 -88.026437 
L 191.615715 -81.3754 
L 190.069804 -75.272222 
L 188.523892 -69.744595 
L 186.977981 -64.816399 
L 185.432069 -60.508183 
L 183.886158 -56.837625 
L 182.340247 -53.819952 
L 180.794335 -51.468314 
L 179.248424 -49.794079 
L 177.702513 -48.807065 
L 176.156601 -48.515687 
L 174.61069 -48.92701 
L 173.064778 -50.046735 
L 171.518867 -51.879083 
L 169.972956 -54.42661 
L 168.427044 -57.689935 
L 166.881133 -61.667407 
L 165.335222 -66.354702 
L 163.78931 -71.744373 
L 162.243399 -77.825368 
L 160.697487 -84.582519 
L 159.151576 -91.996029 
L 157.605665 -100.040986 
L 156.059753 -108.686896 
L 154.513842 -117.897283 
L 152.967931 -127.629365 
L 151.422019 -137.833822 
L 149.876108 -148.454678 
L 148.330196 -159.429316 
L 146.784285 -170.688621 
L 145.238374 -182.157285 
L 143.692462 -193.754245 
L 142.146551 -205.393283 
L 140.60064 -216.98376 
L 139.054728 -228.431475 
L 137.508817 -239.639656 
L 135.962905 -250.510039 
L 134.416994 -260.944047 
L 132.871083 -270.844027 
L 131.325171 -280.11455 
L 129.77926 -288.663747 
L 128.233349 -296.404656 
L 126.687437 -303.256579 
L 125.141526 -309.146397 
L 123.595614 -314.009833 
L 122.049703 -317.792633 
L 120.503792 -320.451603 
L 118.95788 -321.955501 
L 117.411969 -322.285714 
L 115.866058 -321.436711 
L 114.320146 -319.416231 
L 112.774235 -316.245197 
L 111.228323 -311.957354 
L 109.682412 -306.598623 
L 108.136501 -300.226215 
L 106.590589 -292.907512 
L 105.044678 -284.718773 
L 103.498767 -275.743699 
L 101.952855 -266.071918 
L 100.406944 -255.797423 
L 98.861032 -245.017022 
L 97.315121 -233.828828 
L 95.76921 -222.330816 
L 94.223298 -210.619491 
L 92.677387 -198.788648 
L 91.131476 -186.928278 
L 89.585564 -175.123583 
L 88.039653 -163.45414 
L 86.493741 -151.993194 
L 84.94783 -140.807091 
L 83.401919 -129.954849 
L 81.856007 -119.487869 
L 80.310096 -109.449776 
L 78.764185 -99.876389 
L 77.218273 -90.795823 
L 75.672362 -82.228695 
L 74.12645 -74.188439 
L 72.580539 -66.681711 
L 71.034628 -59.708873 
L 69.488716 -53.264552 
L 67.942805 -47.338235 
L 66.396894 -41.914926 
L 64.850982 -36.975806 
L 63.305071 -32.498923 
L 61.759159 -28.459862 
L 60.213248 -24.832406 
L 58.667337 -21.589157 
L 57.121425 -18.702108 
L 55.575514 -16.143164 
L 54.029603 -13.884584 
L 52.483691 -11.899366 
L 50.93778 -10.161545 
L 49.391868 -8.646428 
L 47.845957 -7.330763 
L 46.300046 -6.192849 
L 44.754134 -5.212588 
L 43.208223 -4.371505 
L 41.662312 -3.652727 
L 40.1164 -3.04094 
L 38.570489 -2.522326 
L 37.024577 -2.084483 
L 35.478666 -1.716343 
L 33.932755 -1.408077 
L 32.386843 -1.151004 
L 30.840932 -0.937499 
L 29.295021 -0.760897 
L 27.749109 -0.615406 
L 26.203198 -0.496017 
L 24.657286 -0.398427 
L 23.111375 -0.318956 
L 21.565464 -0.254479 
L 20.019552 -0.202353 
L 18.473641 -0.160359 
L 16.92773 -0.126641 
L 15.381818 -0.099658 
z
" style="stroke: #2d7dd2"/>
    </defs>
    <g clip-path="url(#p7f23af7778)">
     <use xlink:href="#me9ccaa21a8" x="0" y="338.4" style="fill: #2d7dd2; fill-opacity: 0.25; stroke: #2d7dd2"/>
    </g>
   </g>
   <g id="PolyCollection_2">
    <defs>
     <path id="mf3312f837d" d="M 15.381818 -0.352593 
L 15.381818 0 
L 16.92773 0 
L 18.473641 0 
L 20.019552 0 
L 21.565464 0 
L 23.111375 0 
L 24.657286 0 
L 26.203198 0 
L 27.749109 0 
L 29.295021 0 
L 30.840932 0 
L 32.386843 0 
L 33.932755 0 
L 35.478666 0 
L 37.024577 0 
L 38.570489 0 
L 40.1164 0 
L 41.662312 0 
L 43.208223 0 
L 44.754134 0 
L 46.300046 0 
L 47.845957 0 
L 49.391868 0 
L 50.93778 0 
L 52.483691 0 
L 54.029603 0 
L 55.575514 0 
L 57.121425 0 
L 58.667337 0 
L 60.213248 0 
L 61.759159 0 
L 63.305071 0 
L 64.850982 0 
L 66.396894 0 
L 67.942805 0 
L 69.488716 0 
L 71.034628 0 
L 72.580539 0 
L 74.12645 0 
L 75.672362 0 
L 77.218273 0 
L 78.764185 0 
L 80.310096 0 
L 81.856007 0 
L 83.401919 0 
L 84.94783 0 
L 86.493741 0 
L 88.039653 0 
L 89.585564 0 
L 91.131476 0 
L 92.677387 0 
L 94.223298 0 
L 95.76921 0 
L 97.315121 0 
L 98.861032 0 
L 100.406944 0 
L 101.952855 0 
L 103.498767 0 
L 105.044678 0 
L 106.590589 0 
L 108.136501 0 
L 109.682412 0 
L 111.228323 0 
L 112.774235 0 
L 114.320146 0 
L 115.866058 0 
L 117.411969 0 
L 118.95788 0 
L 120.503792 0 
L 122.049703 0 
L 123.595614 0 
L 125.141526 0 
L 126.687437 0 
L 128.233349 0 
L 129.77926 0 
L 131.325171 0 
L 132.871083 0 
L 134.416994 0 
L 135.962905 0 
L 137.508817 0 
L 139.054728 0 
L 140.60064 0 
L 142.146551 0 
L 143.692462 0 
L 145.238374 0 
L 146.784285 0 
L 148.330196 0 
L 149.876108 0 
L 151.422019 0 
L 152.967931 0 
L 154.513842 0 
L 156.059753 0 
L 157.605665 0 
L 159.151576 0 
L 160.697487 0 
L 162.243399 0 
L 163.78931 0 
L 165.335222 0 
L 166.881133 0 
L 168.427044 0 
L 169.972956 0 
L 171.518867 0 
L 173.064778 0 
L 174.61069 0 
L 176.156601 0 
L 177.702513 0 
L 179.248424 0 
L 180.794335 0 
L 182.340247 0 
L 183.886158 0 
L 185.432069 0 
L 186.977981 0 
L 188.523892 0 
L 190.069804 0 
L 191.615715 0 
L 193.161626 0 
L 194.707538 0 
L 196.253449 0 
L 197.79936 0 
L 199.345272 0 
L 200.891183 0 
L 202.437095 0 
L 203.983006 0 
L 205.528917 0 
L 207.074829 0 
L 208.62074 0 
L 210.166651 0 
L 211.712563 0 
L 213.258474 0 
L 214.804386 0 
L 216.350297 0 
L 217.896208 0 
L 219.44212 0 
L 220.988031 0 
L 222.533942 0 
L 224.079854 0 
L 225.625765 0 
L 227.171677 0 
L 228.717588 0 
L 230.263499 0 
L 231.809411 0 
L 233.355322 0 
L 234.901233 0 
L 236.447145 0 
L 237.993056 0 
L 239.538968 0 
L 241.084879 0 
L 242.63079 0 
L 244.176702 0 
L 245.722613 0 
L 247.268524 0 
L 248.814436 0 
L 250.360347 0 
L 251.906259 0 
L 253.45217 0 
L 254.998081 0 
L 256.543993 0 
L 258.089904 0 
L 259.635815 0 
L 261.181727 0 
L 262.727638 0 
L 264.27355 0 
L 265.819461 0 
L 267.365372 0 
L 268.911284 0 
L 270.457195 0 
L 272.003106 0 
L 273.549018 0 
L 275.094929 0 
L 276.640841 0 
L 278.186752 0 
L 279.732663 0 
L 281.278575 0 
L 282.824486 0 
L 284.370397 0 
L 285.916309 0 
L 287.46222 0 
L 289.008132 0 
L 290.554043 0 
L 292.099954 0 
L 293.645866 0 
L 295.191777 0 
L 296.737688 0 
L 298.2836 0 
L 299.829511 0 
L 301.375423 0 
L 302.921334 0 
L 304.467245 0 
L 306.013157 0 
L 307.559068 0 
L 309.104979 0 
L 310.650891 0 
L 312.196802 0 
L 313.742714 0 
L 315.288625 0 
L 316.834536 0 
L 318.380448 0 
L 319.926359 0 
L 321.47227 0 
L 323.018182 0 
L 323.018182 -0.000664 
L 323.018182 -0.000664 
L 321.47227 -0.000888 
L 319.926359 -0.001138 
L 318.380448 -0.0014 
L 316.834536 -0.001656 
L 315.288625 -0.001888 
L 313.742714 -0.002083 
L 312.196802 -0.002239 
L 310.650891 -0.002368 
L 309.104979 -0.002496 
L 307.559068 -0.002664 
L 306.013157 -0.00292 
L 304.467245 -0.003311 
L 302.921334 -0.003879 
L 301.375423 -0.004652 
L 299.829511 -0.005643 
L 298.2836 -0.006855 
L 296.737688 -0.008292 
L 295.191777 -0.009971 
L 293.645866 -0.011942 
L 292.099954 -0.014301 
L 290.554043 -0.017197 
L 289.008132 -0.020842 
L 287.46222 -0.025499 
L 285.916309 -0.031472 
L 284.370397 -0.039088 
L 282.824486 -0.04868 
L 281.278575 -0.060576 
L 279.732663 -0.075089 
L 278.186752 -0.092529 
L 276.640841 -0.113207 
L 275.094929 -0.137455 
L 273.549018 -0.165632 
L 272.003106 -0.198134 
L 270.457195 -0.235389 
L 268.911284 -0.27787 
L 267.365372 -0.326103 
L 265.819461 -0.380709 
L 264.27355 -0.442453 
L 262.727638 -0.512316 
L 261.181727 -0.591553 
L 259.635815 -0.68174 
L 258.089904 -0.78479 
L 256.543993 -0.902923 
L 254.998081 -1.038616 
L 253.45217 -1.194521 
L 251.906259 -1.373388 
L 250.360347 -1.577982 
L 248.814436 -1.811037 
L 247.268524 -2.075223 
L 245.722613 -2.373162 
L 244.176702 -2.707489 
L 242.63079 -3.080972 
L 241.084879 -3.496704 
L 239.538968 -3.958332 
L 237.993056 -4.470304 
L 236.447145 -5.038055 
L 234.901233 -5.668061 
L 233.355322 -6.367725 
L 231.809411 -7.14507 
L 230.263499 -8.008306 
L 228.717588 -8.965373 
L 227.171677 -10.023576 
L 225.625765 -11.189427 
L 224.079854 -12.46871 
L 222.533942 -13.866748 
L 220.988031 -15.388753 
L 219.44212 -17.040146 
L 217.896208 -18.826727 
L 216.350297 -20.754654 
L 214.804386 -22.830233 
L 213.258474 -25.059592 
L 211.712563 -27.448332 
L 210.166651 -30.001247 
L 208.62074 -32.722167 
L 207.074829 -35.613938 
L 205.528917 -38.678514 
L 203.983006 -41.91708 
L 202.437095 -45.330162 
L 200.891183 -48.917679 
L 199.345272 -52.678974 
L 197.79936 -56.612875 
L 196.253449 -60.717884 
L 194.707538 -64.992515 
L 193.161626 -69.435715 
L 191.615715 -74.047204 
L 190.069804 -78.82748 
L 188.523892 -83.777274 
L 186.977981 -88.896352 
L 185.432069 -94.181784 
L 183.886158 -99.625989 
L 182.340247 -105.215022 
L 180.794335 -110.927593 
L 179.248424 -116.735143 
L 177.702513 -122.603078 
L 176.156601 -128.492977 
L 174.61069 -134.365339 
L 173.064778 -140.182347 
L 171.518867 -145.910113 
L 169.972956 -151.520072 
L 168.427044 -156.989351 
L 166.881133 -162.3002 
L 165.335222 -167.438709 
L 163.78931 -172.393101 
L 162.243399 -177.151946 
L 160.697487 -181.702561 
L 159.151576 -186.029835 
L 157.605665 -190.11563 
L 156.059753 -193.938829 
L 154.513842 -197.475986 
L 152.967931 -200.702474 
L 151.422019 -203.593897 
L 149.876108 -206.127546 
L 148.330196 -208.2837 
L 146.784285 -210.046601 
L 145.238374 -211.405055 
L 143.692462 -212.352634 
L 142.146551 -212.887498 
L 140.60064 -213.011878 
L 139.054728 -212.731248 
L 137.508817 -212.053284 
L 135.962905 -210.986734 
L 134.416994 -209.540405 
L 132.871083 -207.722479 
L 131.325171 -205.540346 
L 129.77926 -203.001023 
L 128.233349 -200.11211 
L 126.687437 -196.883077 
L 125.141526 -193.326583 
L 123.595614 -189.459487 
L 122.049703 -185.303272 
L 120.503792 -180.883696 
L 118.95788 -176.229682 
L 117.411969 -171.371608 
L 115.866058 -166.339334 
L 114.320146 -161.160383 
L 112.774235 -155.85867 
L 111.228323 -150.454054 
L 109.682412 -144.96279 
L 108.136501 -139.398745 
L 106.590589 -133.775043 
L 105.044678 -128.105745 
L 103.498767 -122.407181 
L 101.952855 -116.698666 
L 100.406944 -111.00252 
L 98.861032 -105.343451 
L 97.315121 -99.747516 
L 95.76921 -94.240864 
L 94.223298 -88.848497 
L 92.677387 -83.593164 
L 91.131476 -78.494496 
L 89.585564 -73.568401 
L 88.039653 -68.826763 
L 86.493741 -64.277456 
L 84.94783 -59.924702 
L 83.401919 -55.7697 
L 81.856007 -51.811453 
L 80.310096 -48.047598 
L 78.764185 -44.475092 
L 77.218273 -41.090626 
L 75.672362 -37.890758 
L 74.12645 -34.871836 
L 72.580539 -32.029858 
L 71.034628 -29.360408 
L 69.488716 -26.858719 
L 67.942805 -24.51985 
L 66.396894 -22.338886 
L 64.850982 -20.311027 
L 63.305071 -18.43152 
L 61.759159 -16.695428 
L 60.213248 -15.097313 
L 58.667337 -13.630968 
L 57.121425 -12.289294 
L 55.575514 -11.064388 
L 54.029603 -9.947824 
L 52.483691 -8.931038 
L 50.93778 -8.005722 
L 49.391868 -7.16412 
L 47.845957 -6.399182 
L 46.300046 -5.704579 
L 44.754134 -5.074624 
L 43.208223 -4.504155 
L 41.662312 -3.988434 
L 40.1164 -3.523088 
L 38.570489 -3.104079 
L 37.024577 -2.727698 
L 35.478666 -2.390542 
L 33.932755 -2.089482 
L 32.386843 -1.821605 
L 30.840932 -1.58416 
L 29.295021 -1.374504 
L 27.749109 -1.19008 
L 26.203198 -1.02841 
L 24.657286 -0.887112 
L 23.111375 -0.76393 
L 21.565464 -0.656764 
L 20.019552 -0.563691 
L 18.473641 -0.482975 
L 16.92773 -0.413068 
L 15.381818 -0.352593 
z
" style="stroke: #e71d36"/>
    </defs>
    <g clip-path="url(#p7f23af7778)">
     <use xlink:href="#mf3312f837d" x="0" y="338.4" style="fill: #e71d36; fill-opacity: 0.25; stroke: #e71d36"/>
    </g>
   </g>
  </g>
 </g>
 <defs>
  <clipPath id="p7f23af7778">
   <rect x="0" y="-0" width="338.4" height="338.4"/>
  </clipPath>
 </defs>
</svg>
